<svg width="589" height="182" viewBox="0 0 589 182" fill="none" xmlns="http://www.w3.org/2000/svg">
<path d="M6.94746 18.65C7.04746 18.4833 7.14746 18.3167 7.24746 18.15C7.34746 17.9833 7.44746 17.8333 7.54746 17.7C8.78079 16.0333 10.3308 15.8 12.1975 17C12.3975 17.1333 12.5308 17.2333 12.5975 17.3C14.0308 18.4 14.7975 19.7333 14.8975 21.3C14.9975 23.2 14.3975 24.6167 13.0975 25.55C12.1641 26.1833 11.0308 26.45 9.69746 26.35C9.59746 26.35 9.48079 26.35 9.34746 26.35C9.24746 26.3167 9.14746 26.3 9.04746 26.3C6.81413 25.9333 5.81413 24.4333 6.04746 21.8C6.04746 21.6667 6.04746 21.5333 6.04746 21.4C6.08079 21.2667 6.11413 21.1333 6.14746 21C6.28079 20.1 6.54746 19.3167 6.94746 18.65ZM12.5475 22.55C13.5141 22.2833 13.4975 21.65 12.4975 20.65C11.7641 19.9167 10.8808 19.55 9.84746 19.55C8.61413 19.5167 7.96413 20.05 7.89746 21.15C7.89746 21.8833 8.16413 22.35 8.69746 22.55C9.86413 22.95 11.1475 22.95 12.5475 22.55ZM31.9189 60.4C32.7189 61.7667 33.6856 62.55 34.8189 62.75C36.4856 63.05 37.1523 63.9 36.8189 65.3C36.6523 66 36.5189 66.5333 36.4189 66.9C36.3189 67.2333 36.2689 67.4167 36.2689 67.45C35.9023 68.35 35.4523 68.7833 34.9189 68.75C32.5856 68.6167 30.6856 67.5 29.2189 65.4C28.3856 64.2 27.6189 63.5833 26.9189 63.55C26.2189 63.4833 25.1189 63.8833 23.6189 64.75C22.0856 65.6167 21.2523 66.2667 21.1189 66.7C20.4856 68.8 19.8356 70.3 19.1689 71.2C18.8689 71.4667 18.6189 71.6167 18.4189 71.65C17.9856 71.7167 17.7523 71.4 17.7189 70.7C17.6189 69.4 18.2356 67.6333 19.5689 65.4C20.2356 64.3333 20.9356 63.35 21.6689 62.45C22.4356 61.55 23.2689 60.7333 24.1689 60C26.0023 58.5333 27.4689 57.8 28.5689 57.8C29.7689 57.8 30.8856 58.6667 31.9189 60.4ZM20.0189 73.45C18.9523 73.05 18.2523 72.5 17.9189 71.8C17.3523 70.5333 17.8523 68.7833 19.4189 66.55C19.4523 66.5167 19.5023 66.4167 19.5689 66.25C19.6689 66.0833 19.7856 65.8833 19.9189 65.65C20.2189 65.0833 20.5523 64.8833 20.9189 65.05C21.4523 65.25 21.5356 65.7167 21.1689 66.45C20.8356 67.0833 21.2023 67.6833 22.2689 68.25C22.8023 68.5167 23.4856 68.75 24.3189 68.95C25.1856 69.1833 26.1856 69.3833 27.3189 69.55C29.5856 69.8833 31.2023 70.2167 32.1689 70.55C33.0356 70.85 33.6689 71.4667 34.0689 72.4C34.4689 73.3667 34.6023 74.3333 34.4689 75.3C34.3356 76.3 34.0356 77.15 33.5689 77.85C32.7023 79.0833 30.5856 80.5333 27.2189 82.2C23.9189 83.8333 20.1523 84.8833 15.9189 85.35C8.31895 86.1833 3.58561 83.9667 1.71895 78.7C1.11895 77 1.06895 74.7167 1.56895 71.85C2.06895 68.95 3.35228 65.85 5.41895 62.55C5.78561 61.95 6.23561 61.8 6.76895 62.1C7.30228 62.4 7.25228 63.0667 6.61895 64.1C4.41895 67.6667 3.60228 70.5833 4.16895 72.85C5.26895 77.55 8.91895 79.7 15.1189 79.3C19.9523 79 25.0856 77.5667 30.5189 75C29.7523 74.8333 28.3189 74.6833 26.2189 74.55C24.8856 74.45 23.7023 74.3 22.6689 74.1C21.6356 73.9 20.7523 73.6833 20.0189 73.45ZM18.2689 89.1C18.4689 88.8333 18.7523 88.75 19.1189 88.85C19.7856 89.0833 20.4356 89.3833 21.0689 89.75C21.7023 90.1167 22.2856 90.5333 22.8189 91C23.0856 91.2667 23.1356 91.5667 22.9689 91.9L20.5689 95.7C20.3023 96.0667 20.0023 96.1 19.6689 95.8C19.5356 95.6667 19.2356 95.45 18.7689 95.15C18.3356 94.8833 17.7523 94.5333 17.0189 94.1L15.3689 96.8C15.1356 97.1333 14.8356 97.1667 14.4689 96.9C14.3023 96.7667 13.9023 96.5167 13.2689 96.15C12.6689 95.7833 11.8523 95.2833 10.8189 94.65C10.4523 94.45 10.4023 94.1667 10.6689 93.8L13.0689 90.2C13.2689 89.9333 13.5523 89.85 13.9189 89.95C14.9189 90.2833 15.8523 90.7667 16.7189 91.4L18.2689 89.1ZM48.4385 83.5C48.8385 83.2333 49.2385 83.15 49.6385 83.25C49.9718 83.35 50.0385 83.75 49.8385 84.45L49.3885 86.05C49.2218 86.55 48.8051 87.0167 48.1385 87.45L38.3885 93.1C38.1551 93.2333 37.9385 93.3 37.7385 93.3C37.3051 93.2667 37.0551 92.9333 36.9885 92.3V91.45C37.0551 90.9167 37.4051 90.4333 38.0385 90L48.4385 83.5ZM34.9424 62.75C37.6424 62.75 39.359 62.3 40.0924 61.4C40.359 61.1333 40.5924 60.7667 40.7924 60.3C40.9924 59.8333 41.1924 59.2833 41.3924 58.65C41.6924 57.75 42.1424 57.4 42.7424 57.6C43.409 57.8 43.5924 58.3333 43.2924 59.2C42.9924 60.1 42.859 60.7167 42.8924 61.05C42.9257 61.3833 43.4924 61.7333 44.5924 62.1C45.659 62.4667 46.3591 62.4833 46.6924 62.15C47.0257 61.7833 47.3257 61.3 47.5924 60.7C47.8591 60.1 48.0757 59.3333 48.2424 58.4C48.3424 57.8333 48.6424 57.55 49.1424 57.55C49.6424 57.55 49.9924 57.8 50.1924 58.3C51.2591 61.1333 52.5591 62.6167 54.0924 62.75C54.8591 62.85 55.3591 63.6 55.5924 65C55.7257 65.8667 55.6924 66.6333 55.4924 67.3C55.1924 68.2667 54.6924 68.75 53.9924 68.75C51.6591 68.6833 49.8757 67.1333 48.6424 64.1C47.9424 67.3 46.6591 68.95 44.7924 69.05C42.4924 69.15 40.659 68.4 39.2924 66.8C37.859 68.0333 36.409 68.6833 34.9424 68.75C34.209 68.75 33.6924 68.2667 33.3924 67.3C33.0924 66.3 32.9424 65.4167 32.9424 64.65C32.9424 63.85 33.309 63.2833 34.0424 62.95C34.309 62.8167 34.609 62.75 34.9424 62.75ZM61.3908 18.65C61.4908 18.4833 61.5908 18.3167 61.6908 18.15C61.7908 17.9833 61.8908 17.8333 61.9908 17.7C63.2242 16.0333 64.7742 15.8 66.6408 17C66.8408 17.1333 66.9742 17.2333 67.0408 17.3C68.4742 18.4 69.2408 19.7333 69.3408 21.3C69.4408 23.2 68.8408 24.6167 67.5408 25.55C66.6075 26.1833 65.4742 26.45 64.1408 26.35C64.0408 26.35 63.9242 26.35 63.7908 26.35C63.6908 26.3167 63.5908 26.3 63.4908 26.3C61.2575 25.9333 60.2575 24.4333 60.4908 21.8C60.4908 21.6667 60.4908 21.5333 60.4908 21.4C60.5242 21.2667 60.5575 21.1333 60.5908 21C60.7242 20.1 60.9908 19.3167 61.3908 18.65ZM66.9908 22.55C67.9575 22.2833 67.9408 21.65 66.9408 20.65C66.2075 19.9167 65.3242 19.55 64.2908 19.55C63.0575 19.5167 62.4075 20.05 62.3408 21.15C62.3408 21.8833 62.6075 22.35 63.1408 22.55C64.3075 22.95 65.5908 22.95 66.9908 22.55ZM68.0865 48.3C68.3865 48.3 68.6699 48.3667 68.9365 48.5C69.9032 49.0667 70.5365 50.15 70.8365 51.75C71.2699 54.4167 70.9532 56.95 69.8865 59.35C69.6865 59.7833 69.4699 60.2 69.2365 60.6C69.0365 61 68.8032 61.4167 68.5365 61.85C70.2032 62.3833 71.6532 62.6833 72.8865 62.75C73.6199 62.7833 74.0532 63.55 74.1865 65.05C74.3199 66.55 74.2199 67.5667 73.8865 68.1C73.6199 68.5 73.3032 68.7167 72.9365 68.75C70.1365 69.05 66.6532 68.1167 62.4865 65.95C61.2865 66.4833 59.7365 67.0833 57.8365 67.75C55.9032 68.4167 54.5865 68.75 53.8865 68.75C53.1199 68.75 52.6199 68.2667 52.3865 67.3C52.2532 66.8 52.2032 66.3 52.2365 65.8C52.2365 65.3 52.2865 64.8167 52.3865 64.35C52.5865 63.45 53.0699 62.9167 53.8365 62.75C55.4365 62.5167 56.9699 62.1667 58.4365 61.7C58.4032 60.9667 58.4365 60.2333 58.5365 59.5C58.6365 58.7333 58.8365 57.9667 59.1365 57.2C60.2365 54.3 62.2032 51.7833 65.0365 49.65C66.2032 48.75 67.2199 48.3 68.0865 48.3ZM65.6865 55.05C63.9532 55.0167 62.5032 55.7833 61.3365 57.35C62.6699 60.1167 64.7699 60.45 67.6365 58.35C67.6365 56.1833 66.9865 55.0833 65.6865 55.05ZM64.6865 35.55C64.8865 35.2833 65.1699 35.2 65.5365 35.3C66.2032 35.5333 66.8365 35.8333 67.4365 36.2C68.0699 36.5667 68.6532 36.9833 69.1865 37.45C69.4532 37.7167 69.5032 38.0167 69.3365 38.35L66.9365 42.15C66.7032 42.4833 66.4032 42.5167 66.0365 42.25C65.7032 41.9833 64.5032 41.2333 62.4365 40C62.0699 39.7667 62.0032 39.4833 62.2365 39.15L64.6865 35.55ZM79.7373 16.6C80.1373 16.3333 80.5373 16.25 80.9373 16.35C81.2706 16.45 81.3373 16.85 81.1373 17.55L80.6873 19.15C80.5206 19.65 80.104 20.1167 79.4373 20.55L69.6873 26.2C69.454 26.3333 69.2373 26.4 69.0373 26.4C68.604 26.3667 68.354 26.0333 68.2873 25.4V24.55C68.354 24.0167 68.704 23.5333 69.3373 23.1L79.7373 16.6ZM75.383 57.35L76.833 54.25C77.333 53.15 77.7663 52.9333 78.133 53.6C79.7663 56.3667 80.1497 59.6 79.283 63.3C78.4497 66.9333 76.2997 68.75 72.833 68.75C72.1663 68.75 71.683 68.1833 71.383 67.05C71.2497 66.4833 71.1497 65.9833 71.083 65.55C71.0163 65.0833 70.983 64.6833 70.983 64.35C70.983 63.6833 71.333 63.2 72.033 62.9C72.2997 62.8 72.5663 62.75 72.833 62.75C74.6997 62.7833 76.0997 62.4 77.033 61.6C76.833 60.7 76.4497 59.95 75.883 59.35C75.2497 58.65 75.083 57.9833 75.383 57.35ZM75.983 42.9C76.183 42.6333 76.4663 42.55 76.833 42.65C77.4997 42.8833 78.133 43.1833 78.733 43.55C79.3663 43.9167 79.9497 44.3333 80.483 44.8C80.7497 45.0667 80.7997 45.3667 80.633 45.7L78.233 49.5C77.9997 49.8333 77.6997 49.8667 77.333 49.6C76.9997 49.3333 75.7997 48.5833 73.733 47.35C73.3663 47.1167 73.2997 46.8333 73.533 46.5L75.983 42.9ZM110.024 18.65C110.124 18.4833 110.224 18.3167 110.324 18.15C110.424 17.9833 110.524 17.8333 110.624 17.7C111.857 16.0333 113.407 15.8 115.274 17C115.474 17.1333 115.607 17.2333 115.674 17.3C117.107 18.4 117.874 19.7333 117.974 21.3C118.074 23.2 117.474 24.6167 116.174 25.55C115.24 26.1833 114.107 26.45 112.774 26.35C112.674 26.35 112.557 26.35 112.424 26.35C112.324 26.3167 112.224 26.3 112.124 26.3C109.89 25.9333 108.89 24.4333 109.124 21.8C109.124 21.6667 109.124 21.5333 109.124 21.4C109.157 21.2667 109.19 21.1333 109.224 21C109.357 20.1 109.624 19.3167 110.024 18.65ZM115.624 22.55C116.59 22.2833 116.574 21.65 115.574 20.65C114.84 19.9167 113.957 19.55 112.924 19.55C111.69 19.5167 111.04 20.05 110.974 21.15C110.974 21.8833 111.24 22.35 111.774 22.55C112.94 22.95 114.224 22.95 115.624 22.55ZM122.854 60.3C123.254 59.4333 123.787 59.2333 124.454 59.7C124.754 59.9333 125.354 60.75 126.254 62.15C126.454 62.55 126.937 62.75 127.704 62.75C128.504 62.75 129.071 63.1333 129.404 63.9C129.771 64.7333 129.754 65.6667 129.354 66.7C128.954 67.7667 128.637 68.3667 128.404 68.5C128.137 68.6667 127.904 68.75 127.704 68.75H126.604C126.404 71.15 125.537 73.9 124.004 77C121.304 82.5333 116.604 85.3833 109.904 85.55C107.071 85.5833 104.687 84.7 102.754 82.9C100.821 81.0667 99.9374 78.8 100.104 76.1C100.237 73.4 101.454 69.9667 103.754 65.8C104.087 65.2 104.404 65 104.704 65.2C105.037 65.4333 105.054 65.8167 104.754 66.35C103.287 69.2833 102.571 71.3667 102.604 72.6C102.837 76.6 105.471 78.6167 110.504 78.65C116.004 78.7167 120.137 77.3333 122.904 74.5C123.137 72.6333 123.137 70.8667 122.904 69.2C122.671 67.5667 122.221 66.0333 121.554 64.6C121.321 64.1 121.371 63.5 121.704 62.8L122.854 60.3ZM112.454 49.25C112.654 48.9833 112.937 48.9 113.304 49C113.971 49.2333 114.604 49.5333 115.204 49.9C115.837 50.2667 116.421 50.6833 116.954 51.15C117.221 51.4167 117.271 51.7167 117.104 52.05L114.704 55.85C114.471 56.1833 114.171 56.2167 113.804 55.95C113.471 55.6833 112.271 54.9333 110.204 53.7C109.837 53.4667 109.771 53.1833 110.004 52.85L112.454 49.25ZM141.407 16.6C141.807 16.3333 142.207 16.25 142.607 16.35C142.941 16.45 143.007 16.85 142.807 17.55L142.357 19.15C142.191 19.65 141.774 20.1167 141.107 20.55L131.357 26.2C131.124 26.3333 130.907 26.4 130.707 26.4C130.274 26.3667 130.024 26.0333 129.957 25.4V24.55C130.024 24.0167 130.374 23.5333 131.007 23.1L141.407 16.6ZM148.866 55.6L147.866 59.65C147.766 60.05 147.349 60.4167 146.616 60.75C146.282 60.8833 145.499 61.2 144.266 61.7C143.032 62.2 141.382 62.8667 139.316 63.7L127.716 68.75C126.549 68.75 125.799 67.9333 125.466 66.3C125.132 64.6667 125.782 63.5 127.416 62.8C128.082 62.5333 128.649 62.3 129.116 62.1C129.616 61.8667 130.032 61.6833 130.366 61.55C128.599 60.0833 127.966 58.2667 128.466 56.1C129.499 51.6333 131.899 48.5167 135.666 46.75C136.599 46.3167 137.716 46.4 139.016 47C140.282 47.6 141.599 48.6 142.966 50C143.666 50.7333 143.916 51.3167 143.716 51.75C143.549 52.15 142.716 52.15 141.216 51.75C139.682 51.3167 137.866 51.35 135.766 51.85C133.566 52.35 132.132 53.3333 131.466 54.8C131.266 55.1667 131.732 55.8667 132.866 56.9C135.699 59.3333 139.766 58.8667 145.066 55.5C145.432 55.2667 145.766 55.05 146.066 54.85C146.399 54.65 146.682 54.4833 146.916 54.35C148.716 53.2167 149.366 53.6333 148.866 55.6ZM184.767 83.5C185.167 83.2333 185.567 83.15 185.967 83.25C186.3 83.35 186.367 83.75 186.167 84.45L185.717 86.05C185.55 86.55 185.133 87.0167 184.467 87.45L174.717 93.1C174.483 93.2333 174.267 93.3 174.067 93.3C173.633 93.2667 173.383 92.9333 173.317 92.3V91.45C173.383 90.9167 173.733 90.4333 174.367 90L184.767 83.5ZM188.144 38.05C188.077 37.5833 187.994 37.1167 187.894 36.65C187.827 36.15 187.744 35.6333 187.644 35.1C187.31 34.2667 187.31 33.5 187.644 32.8L188.944 30.3C189.377 29.4 189.844 29.6167 190.344 30.95C190.877 32.3833 191.644 33.5 192.644 34.3C193.344 34.8667 193.41 35.5167 192.844 36.25L191.594 37.85C191.66 38.9833 191.777 40.3 191.944 41.8C192.11 43.3 192.31 45.0167 192.544 46.95C192.81 48.8833 193.01 50.6 193.144 52.1C193.277 53.5667 193.377 54.8333 193.444 55.9C193.677 59.4333 193.227 62.6 192.094 65.4C191.294 67.2667 189.477 68.8333 186.644 70.1C185.244 70.7333 183.91 71.2 182.644 71.5C181.377 71.8333 180.16 71.9833 178.994 71.95C174.294 71.8833 171.277 70.1333 169.944 66.7C169.477 65.4667 169.244 64.1667 169.244 62.8C169.244 59 170.427 55.6167 172.794 52.65C173.26 52.05 173.644 51.9 173.944 52.2C174.244 52.4667 174.21 52.9333 173.844 53.6C172.277 56.4333 171.56 58.5667 171.694 60C172.06 63.6667 175.027 65.4 180.594 65.2C185.427 65.0333 188.844 63.7333 190.844 61.3C190.41 58.2333 190.044 55.5667 189.744 53.3C189.477 51.0333 189.26 49.15 189.094 47.65C188.96 46.15 188.81 44.6 188.644 43C188.477 41.4 188.31 39.75 188.144 38.05ZM219.371 58C219.637 60.0667 219.487 61.1833 218.921 61.35C218.454 61.5167 218.071 61.0667 217.771 60C216.271 55.2333 213.004 51.35 207.971 48.35L207.421 49.55C206.887 50.65 205.904 50.7167 204.471 49.75L200.121 46.75C199.254 46.1833 198.821 45.4833 198.821 44.65L198.721 39.3C198.721 38.5 198.971 37.9667 199.471 37.7C200.004 37.4 200.654 37.4333 201.421 37.8C212.487 43.5333 218.471 50.2667 219.371 58ZM224.22 16.6C224.62 16.3333 225.02 16.25 225.42 16.35C225.753 16.45 225.82 16.85 225.62 17.55L225.17 19.15C225.003 19.65 224.586 20.1167 223.92 20.55L214.17 26.2C213.936 26.3333 213.72 26.4 213.52 26.4C213.086 26.3667 212.836 26.0333 212.77 25.4V24.55C212.836 24.0167 213.186 23.5333 213.82 23.1L224.22 16.6ZM227.635 60.4C228.202 61.5 228.868 62.1833 229.635 62.45C230.402 62.7167 230.935 63.1333 231.235 63.7C231.702 64.7667 231.718 66.1333 231.285 67.8C230.952 69 230.385 69.6167 229.585 69.65C227.185 69.55 225.335 67.95 224.035 64.85C223.802 64.2833 223.502 63.1833 223.135 61.55C222.802 59.9167 222.402 57.75 221.935 55.05C221.302 57.95 220.452 60.4667 219.385 62.6C218.352 64.7333 217.085 66.4833 215.585 67.85C213.185 70.0167 208.985 71.1 202.985 71.1C202.418 71.1 202.068 70.95 201.935 70.65C201.768 70.2167 201.702 69.85 201.735 69.55C201.802 69.1833 202.085 68.9167 202.585 68.75C204.452 68.2167 206.168 67.6167 207.735 66.95C209.302 66.25 210.702 65.4667 211.935 64.6C215.502 62.0667 217.785 59.2 218.785 56C219.385 54 219.752 51.6167 219.885 48.85C220.052 46.0833 219.952 42.9333 219.585 39.4C219.485 38.4333 219.585 37.6833 219.885 37.15L221.085 35C221.518 34.3 222.018 34.05 222.585 34.25C223.085 34.45 223.352 34.8833 223.385 35.55C223.952 42.0833 224.585 47.4167 225.285 51.55C226.018 55.6833 226.802 58.6333 227.635 60.4ZM229.67 37.25L230.62 35.15C230.887 34.5167 231.27 34.2333 231.77 34.3C232.27 34.3333 232.62 34.65 232.82 35.25C233.087 36.0167 233.37 36.6833 233.67 37.25C234.003 37.7833 234.337 38.2333 234.67 38.6C235.337 39.3 235.037 40.3667 233.77 41.8C233.67 41.9333 233.62 42.0667 233.62 42.2C233.687 43.0333 233.753 44 233.82 45.1C233.92 46.2 234.037 47.45 234.17 48.85L234.62 53.5C234.82 55.6667 234.937 57.55 234.97 59.15C235.037 60.75 234.987 62.05 234.82 63.05C234.253 66.7167 232.787 68.85 230.42 69.45C230.287 69.4833 230.153 69.5 230.02 69.5C229.887 69.5333 229.753 69.5667 229.62 69.6C228.853 69.7 228.32 69.1667 228.02 68C227.987 67.8333 227.953 67.6333 227.92 67.4C227.887 67.1667 227.837 66.9167 227.77 66.65C227.47 64.5833 227.703 63.2667 228.47 62.7C228.737 62.4667 229.07 62.3833 229.47 62.45C229.937 62.5167 230.37 62.5667 230.77 62.6C231.17 62.6 231.487 62.55 231.72 62.45C231.787 61.5167 231.737 60.1167 231.57 58.25C231.437 56.35 231.22 53.9833 230.92 51.15C230.587 48.0833 230.32 45.5833 230.12 43.65C229.92 41.7167 229.787 40.35 229.72 39.55L229.62 37.55C229.62 37.4167 229.637 37.3167 229.67 37.25ZM238.637 20.65C238.737 20.4833 238.837 20.3167 238.937 20.15C239.037 19.9833 239.137 19.8333 239.237 19.7C240.47 18.0333 242.02 17.8 243.887 19C244.087 19.1333 244.22 19.2333 244.287 19.3C245.72 20.4 246.487 21.7333 246.587 23.3C246.687 25.2 246.087 26.6167 244.787 27.55C243.854 28.1833 242.72 28.45 241.387 28.35C241.287 28.35 241.17 28.35 241.037 28.35C240.937 28.3167 240.837 28.3 240.737 28.3C238.504 27.9333 237.504 26.4333 237.737 23.8C237.737 23.6667 237.737 23.5333 237.737 23.4C237.77 23.2667 237.804 23.1333 237.837 23C237.97 22.1 238.237 21.3167 238.637 20.65ZM244.237 24.55C245.204 24.2833 245.187 23.65 244.187 22.65C243.454 21.9167 242.57 21.55 241.537 21.55C240.304 21.5167 239.654 22.05 239.587 23.15C239.587 23.8833 239.854 24.35 240.387 24.55C241.554 24.95 242.837 24.95 244.237 24.55ZM242.236 33.4C242.903 31.9667 243.336 32.3 243.536 34.4L244.736 46.6C245.736 57.5333 245.503 64.4167 244.036 67.25C243.703 67.85 243.386 68.1 243.086 68C242.753 67.9 242.603 67.1 242.636 65.6C242.669 64.3333 242.536 62.25 242.236 59.35C241.936 56.4167 241.486 52.7 240.886 48.2L239.836 39.9C239.736 39.2 239.836 38.5167 240.136 37.85L242.236 33.4ZM275.685 16.6C276.085 16.3333 276.485 16.25 276.885 16.35C277.218 16.45 277.285 16.85 277.085 17.55L276.635 19.15C276.468 19.65 276.051 20.1167 275.385 20.55L265.635 26.2C265.401 26.3333 265.185 26.4 264.985 26.4C264.551 26.3667 264.301 26.0333 264.235 25.4V24.55C264.301 24.0167 264.651 23.5333 265.285 23.1L275.685 16.6ZM270.176 51.15C271.042 50.5833 271.992 50.6 273.026 51.2C275.326 52.5333 276.876 54.2667 277.676 56.4C278.476 58.5333 278.609 60.7333 278.076 63C277.009 67.5667 274.642 69.8833 270.976 69.95C268.376 69.95 266.742 69.0167 266.076 67.15C265.409 65.25 265.476 62.8667 266.276 60C267.109 57.0333 268.226 54.6 269.626 52.7C269.692 51.8333 269.876 51.3167 270.176 51.15ZM275.626 61.9C274.392 59.9667 272.759 58.9667 270.726 58.9C269.826 58.8333 269.176 59.1833 268.776 59.95C267.676 61.95 268.542 62.95 271.376 62.95C273.209 62.95 274.626 62.6 275.626 61.9ZM273.076 37.15C273.276 36.8833 273.559 36.8 273.926 36.9C274.592 37.1333 275.242 37.4333 275.876 37.8C276.509 38.1667 277.092 38.5833 277.626 39.05C277.892 39.3167 277.942 39.6167 277.776 39.95L275.376 43.75C275.109 44.1167 274.809 44.15 274.476 43.85C274.342 43.7167 274.042 43.5167 273.576 43.25C273.142 42.95 272.559 42.5833 271.826 42.15L270.176 44.85C269.942 45.1833 269.642 45.2167 269.276 44.95C269.109 44.8167 268.709 44.5667 268.076 44.2C267.476 43.8333 266.659 43.3333 265.626 42.7C265.259 42.5 265.209 42.2167 265.476 41.85L267.876 38.25C268.076 37.9833 268.359 37.9 268.726 38C269.726 38.3333 270.659 38.8167 271.526 39.45L273.076 37.15ZM285.108 16.6C285.508 16.3333 285.908 16.25 286.308 16.35C286.642 16.45 286.708 16.85 286.508 17.55L286.058 19.15C285.892 19.65 285.475 20.1167 284.808 20.55L275.058 26.2C274.825 26.3333 274.608 26.4 274.408 26.4C273.975 26.3667 273.725 26.0333 273.658 25.4V24.55C273.725 24.0167 274.075 23.5333 274.708 23.1L285.108 16.6ZM285.333 31.05C286.266 34.45 286.749 39.8667 286.783 47.3C286.816 51.0333 286.916 53.9833 287.083 56.15C287.249 58.3167 287.466 59.7167 287.733 60.35C288.299 61.6167 289.316 62.3833 290.783 62.65C292.216 62.8833 293.066 64.1167 293.333 66.35C293.499 67.9167 292.966 68.8667 291.733 69.2C291.433 69.3 291.033 69.3167 290.533 69.25C288.866 69.1167 287.433 68.4167 286.233 67.15C284.266 65.1167 283.333 60.6667 283.433 53.8C283.466 51.9333 283.433 50.1 283.333 48.3C283.266 46.4667 283.133 44.65 282.933 42.85C282.733 41.05 282.549 39.55 282.383 38.35C282.249 37.15 282.116 36.2833 281.983 35.75C281.749 34.65 281.649 33.9667 281.683 33.7C281.749 33.4 281.816 33.1833 281.883 33.05L283.333 30.75C283.499 30.4167 283.733 30.2 284.033 30.1C284.633 29.9 285.066 30.2167 285.333 31.05ZM288.459 47.95C293.759 49.3833 297.275 51.2167 299.009 53.45C300.609 55.55 301.409 57.6667 301.409 59.8C301.375 65 299.575 68.05 296.009 68.95C294.509 69.2833 292.659 69.3833 290.459 69.25C289.625 69.15 289.025 68.6 288.659 67.6C288.292 66.5667 288.275 65.55 288.609 64.55C289.042 63.1167 289.709 62.4667 290.609 62.6C293.842 63.0667 296.792 62.2833 299.459 60.25C298.325 58.7167 296.692 57.3167 294.559 56.05C292.425 54.7833 289.775 53.6833 286.609 52.75C285.875 52.55 285.509 51.6167 285.509 49.95C285.509 49.25 285.542 48.65 285.609 48.15C285.675 47.6167 285.775 47.1833 285.909 46.85C287.209 43.6833 291.209 40.1333 297.909 36.2C301.309 34.2 304.259 32.55 306.759 31.25C309.292 29.9167 311.375 28.9667 313.009 28.4C314.775 27.7333 315.459 28.2833 315.059 30.05L314.359 33.25C314.159 33.95 313.742 34.4167 313.109 34.65C311.075 35.4833 308.875 36.4833 306.509 37.65C304.175 38.7833 301.709 40.05 299.109 41.45C293.875 44.25 290.325 46.4167 288.459 47.95ZM326.222 16.6C326.622 16.3333 327.022 16.25 327.422 16.35C327.755 16.45 327.822 16.85 327.622 17.55L327.172 19.15C327.005 19.65 326.588 20.1167 325.922 20.55L316.172 26.2C315.938 26.3333 315.722 26.4 315.522 26.4C315.088 26.3667 314.838 26.0333 314.772 25.4V24.55C314.838 24.0167 315.188 23.5333 315.822 23.1L326.222 16.6ZM324.38 53.25C324.447 52.95 324.564 52.7667 324.73 52.7C325.097 52.6 325.63 52.9833 326.33 53.85C326.864 54.4833 327.364 55.2667 327.83 56.2C328.297 57.1333 328.697 58.2333 329.03 59.5C330.597 65.1 329.597 70.2 326.03 74.8C323.964 77.4667 321.43 79.2 318.43 80C317.33 80.3 316.397 80.2667 315.63 79.9C314.164 79.2667 312.864 78.6833 311.73 78.15C310.564 77.65 309.564 77.2 308.73 76.8C308.197 76.5 308.014 76.1667 308.18 75.8C308.38 75.4 308.747 75.2667 309.28 75.4C311.547 76.0667 313.347 76.2333 314.68 75.9C316.114 75.5333 317.947 74.6833 320.18 73.35C324.114 70.9833 326.497 68.6833 327.33 66.45C327.364 66.3833 327.38 66.2833 327.38 66.15C327.08 64.5833 325.664 62.4833 323.13 59.85C322.897 59.6167 322.83 59.3 322.93 58.9L324.38 53.25ZM319.43 38.3C319.63 38.0333 319.914 37.95 320.28 38.05C320.947 38.2833 321.58 38.5833 322.18 38.95C322.814 39.3167 323.397 39.7333 323.93 40.2C324.197 40.4667 324.247 40.7667 324.08 41.1L321.68 44.9C321.447 45.2333 321.147 45.2667 320.78 45C320.447 44.7333 319.247 43.9833 317.18 42.75C316.814 42.5167 316.747 42.2333 316.98 41.9L319.43 38.3ZM368.165 16.6C368.565 16.3333 368.965 16.25 369.365 16.35C369.698 16.45 369.765 16.85 369.565 17.55L369.115 19.15C368.948 19.65 368.532 20.1167 367.865 20.55L358.115 26.2C357.882 26.3333 357.665 26.4 357.465 26.4C357.032 26.3667 356.782 26.0333 356.715 25.4V24.55C356.782 24.0167 357.132 23.5333 357.765 23.1L368.165 16.6ZM360.601 65.05C357.467 66.9167 355.301 69.1 354.101 71.6C352.867 74.1667 352.451 76.5667 352.851 78.8C353.717 83.7667 357.084 86.8167 362.951 87.95C367.951 88.95 374.567 88.9333 382.801 87.9C384.134 87.7333 384.801 87.9667 384.801 88.6C384.801 89.0667 384.101 89.5333 382.701 90C381.367 90.4333 380.034 91.1333 378.701 92.1C377.367 93.0667 376.551 93.6167 376.251 93.75C375.917 93.8833 375.567 93.9833 375.201 94.05C365.234 95.25 358.301 94.2833 354.401 91.15C351.267 88.65 349.901 84.6667 350.301 79.2C350.934 70.6667 354.384 64.4167 360.651 60.45C357.584 59.9833 355.101 60.2333 353.201 61.2C352.834 61.3667 352.551 61.4 352.351 61.3C352.084 61.1333 351.967 60.75 352.001 60.15C352.101 56.3167 354.267 54.35 358.501 54.25C358.867 54.25 359.467 54.3 360.301 54.4C361.167 54.5 362.267 54.6667 363.601 54.9C365.767 55.2667 367.951 55.4667 370.151 55.5C372.351 55.5 374.567 55.3167 376.801 54.95C378.567 54.65 379.217 55.0333 378.751 56.1L377.301 59.55C377.034 60.2167 376.667 60.5667 376.201 60.6C369.867 61.1333 364.667 62.6167 360.601 65.05ZM365.551 72.7C365.751 72.4333 366.034 72.35 366.401 72.45C367.067 72.6833 367.701 72.9833 368.301 73.35C368.934 73.7167 369.517 74.1333 370.051 74.6C370.317 74.8667 370.367 75.1667 370.201 75.5L367.801 79.3C367.567 79.6333 367.267 79.6667 366.901 79.4C366.567 79.1333 365.367 78.3833 363.301 77.15C362.934 76.9167 362.867 76.6333 363.101 76.3L365.551 72.7ZM394.337 83.5C394.737 83.2333 395.137 83.15 395.537 83.25C395.87 83.35 395.937 83.75 395.737 84.45L395.287 86.05C395.12 86.55 394.704 87.0167 394.037 87.45L384.287 93.1C384.054 93.2333 383.837 93.3 383.637 93.3C383.204 93.2667 382.954 92.9333 382.887 92.3V91.45C382.954 90.9167 383.304 90.4333 383.937 90L394.337 83.5ZM393.707 62.3C394.074 61.6333 394.591 61.45 395.257 61.75C395.757 62.1167 396.174 62.7 396.507 63.5C396.874 64.3333 396.991 65.1 396.857 65.8C395.991 70.1667 394.657 73.45 392.857 75.65C390.524 78.3833 387.791 79.9167 384.657 80.25C383.157 80.45 380.157 78.7333 375.657 75.1C375.291 74.8 375.257 74.4167 375.557 73.95C375.857 73.5167 376.307 73.5 376.907 73.9C378.374 74.9333 380.274 75.5 382.607 75.6C383.407 75.6333 384.724 75.2 386.557 74.3C387.457 73.8333 388.291 73.35 389.057 72.85C389.857 72.3833 390.591 71.8667 391.257 71.3C392.557 70.2 393.724 68.7167 394.757 66.85C394.724 66.7167 394.207 66.3833 393.207 65.85C392.507 65.45 392.324 64.95 392.657 64.35L393.707 62.3ZM402.992 18.65C403.092 18.4833 403.192 18.3167 403.292 18.15C403.392 17.9833 403.492 17.8333 403.592 17.7C404.826 16.0333 406.376 15.8 408.242 17C408.442 17.1333 408.576 17.2333 408.642 17.3C410.076 18.4 410.842 19.7333 410.942 21.3C411.042 23.2 410.442 24.6167 409.142 25.55C408.209 26.1833 407.076 26.45 405.742 26.35C405.642 26.35 405.526 26.35 405.392 26.35C405.292 26.3167 405.192 26.3 405.092 26.3C402.859 25.9333 401.859 24.4333 402.092 21.8C402.092 21.6667 402.092 21.5333 402.092 21.4C402.126 21.2667 402.159 21.1333 402.192 21C402.326 20.1 402.592 19.3167 402.992 18.65ZM408.592 22.55C409.559 22.2833 409.542 21.65 408.542 20.65C407.809 19.9167 406.926 19.55 405.892 19.55C404.659 19.5167 404.009 20.05 403.942 21.15C403.942 21.8833 404.209 22.35 404.742 22.55C405.909 22.95 407.192 22.95 408.592 22.55ZM392.399 58.2C393.199 56.0667 393.982 54.65 394.749 53.95C395.549 53.2167 396.782 52.7 398.449 52.4C400.149 52.1 402.282 52.7167 404.849 54.25C405.682 54.7167 406.649 55.2 407.749 55.7C408.849 56.2 410.099 56.7 411.499 57.2C412.899 57.7 414.332 58.0833 415.799 58.35C417.265 58.6167 418.782 58.7667 420.349 58.8C421.515 58.8667 421.932 59.3333 421.599 60.2C421.332 60.9667 421.049 61.6833 420.749 62.35C420.482 62.9833 420.182 63.55 419.849 64.05C419.549 64.55 418.982 64.65 418.149 64.35C417.415 64.0833 415.949 63.7667 413.749 63.4C410.349 62.8333 404.549 63.7333 396.349 66.1C395.849 66.2667 395.465 66.2167 395.199 65.95C394.899 65.65 394.415 64.9 393.749 63.7C393.182 62.7333 393.399 62.1 394.399 61.8C395.965 61.2667 397.549 60.8333 399.149 60.5C400.782 60.1333 402.432 59.85 404.099 59.65C402.899 58.8833 401.349 58.4833 399.449 58.45C399.015 58.4167 398.299 58.5 397.299 58.7C396.332 58.8667 395.082 59.1333 393.549 59.5C392.349 59.8 391.965 59.3667 392.399 58.2ZM411.299 41.2C411.499 40.9333 411.782 40.85 412.149 40.95C412.815 41.1833 413.449 41.4833 414.049 41.85C414.682 42.2167 415.265 42.6333 415.799 43.1C416.065 43.3667 416.115 43.6667 415.949 44L413.549 47.8C413.315 48.1333 413.015 48.1667 412.649 47.9C412.315 47.6333 411.115 46.8833 409.049 45.65C408.682 45.4167 408.615 45.1333 408.849 44.8L411.299 41.2ZM430.792 1.15C431.459 0.983332 431.976 1.16666 432.342 1.69999C432.509 1.93333 432.626 2.21667 432.692 2.55C432.759 2.88333 432.809 3.25 432.842 3.65C432.842 4.41666 432.542 5.55 431.942 7.05C432.209 7.18333 432.426 7.31666 432.592 7.45C432.759 7.55 432.909 7.63333 433.042 7.69999C433.409 7.96666 433.476 8.35 433.242 8.84999L432.642 10.05C432.409 10.55 431.676 10.4667 430.442 9.8C428.576 12.1667 426.909 13.7667 425.442 14.6C424.609 15.0333 424.042 15.05 423.742 14.65C423.509 14.2167 423.859 13.65 424.792 12.95C425.559 12.3833 426.292 11.7667 426.992 11.1C427.659 10.4333 428.309 9.7 428.942 8.9C426.976 7.83333 426.376 6.46667 427.142 4.8C428.109 2.76666 429.326 1.55 430.792 1.15ZM430.292 4.85C430.126 4.58333 429.809 4.55 429.342 4.75C429.209 4.81667 429.092 4.86666 428.992 4.9C428.892 4.93333 428.809 4.98333 428.742 5.05C428.909 5.21666 429.126 5.4 429.392 5.6C429.659 5.76666 429.992 5.96666 430.392 6.2C430.492 5.6 430.459 5.15 430.292 4.85ZM429.604 33.4C430.27 31.9667 430.704 32.3 430.904 34.4L432.104 46.6C433.104 57.5333 432.87 64.4167 431.404 67.25C431.07 67.85 430.754 68.1 430.454 68C430.12 67.9 429.97 67.1 430.004 65.6C430.037 64.3333 429.904 62.25 429.604 59.35C429.304 56.4167 428.854 52.7 428.254 48.2L427.204 39.9C427.104 39.2 427.204 38.5167 427.504 37.85L429.604 33.4ZM433.704 27.75C431.937 28.0833 430.67 28.3833 429.904 28.65C429.137 28.9167 427.754 29.4833 425.754 30.35C425.154 30.6167 424.687 30.5 424.354 30C423.887 29.2333 424.387 28.35 425.854 27.35C424.887 26.75 424.32 26.0667 424.154 25.3C423.887 23.8333 424.487 22.1 425.954 20.1C427.42 18.0667 429.004 17.1333 430.704 17.3C431.937 17.4 432.504 18.05 432.404 19.25C432.37 19.85 432.27 20.3667 432.104 20.8C431.97 21.2 431.82 21.5333 431.654 21.8C431.254 22.3667 431.004 22.6833 430.904 22.75C430.437 23.0833 430.02 23 429.654 22.5C429.287 21.9667 428.854 21.6833 428.354 21.65C427.82 21.6167 427.42 21.75 427.154 22.05C426.92 22.35 426.92 22.6167 427.154 22.85C428.187 23.8167 429.737 24.3333 431.804 24.4C432.17 24.4 432.67 24.3333 433.304 24.2C433.67 24.1333 433.97 24.0833 434.204 24.05C434.437 23.9833 434.637 23.95 434.804 23.95C435.137 23.95 435.42 24.1167 435.654 24.45C435.82 24.75 435.854 25.05 435.754 25.35C435.054 26.7833 434.37 27.5833 433.704 27.75ZM460.268 18.65C460.368 18.4833 460.468 18.3167 460.568 18.15C460.668 17.9833 460.768 17.8333 460.868 17.7C462.101 16.0333 463.651 15.8 465.518 17C465.718 17.1333 465.851 17.2333 465.918 17.3C467.351 18.4 468.118 19.7333 468.218 21.3C468.318 23.2 467.718 24.6167 466.418 25.55C465.484 26.1833 464.351 26.45 463.018 26.35C462.918 26.35 462.801 26.35 462.668 26.35C462.568 26.3167 462.468 26.3 462.368 26.3C460.134 25.9333 459.134 24.4333 459.368 21.8C459.368 21.6667 459.368 21.5333 459.368 21.4C459.401 21.2667 459.434 21.1333 459.468 21C459.601 20.1 459.868 19.3167 460.268 18.65ZM465.868 22.55C466.834 22.2833 466.818 21.65 465.818 20.65C465.084 19.9167 464.201 19.55 463.168 19.55C461.934 19.5167 461.284 20.05 461.218 21.15C461.218 21.8833 461.484 22.35 462.018 22.55C463.184 22.95 464.468 22.95 465.868 22.55ZM473.172 45.1C475.672 50.1667 476.555 55.8 475.822 62C475.722 62.7667 475.539 63.5167 475.272 64.25C475.039 64.9833 474.689 65.6833 474.222 66.35C472.089 69.5833 468.689 71.45 464.022 71.95C460.789 72.2833 458.222 71.55 456.322 69.75C454.455 67.95 453.539 65.5833 453.572 62.65C453.639 59.5833 454.605 56.6833 456.472 53.95C456.872 53.3833 457.205 53.2333 457.472 53.5C457.805 53.8333 457.805 54.2667 457.472 54.8C455.672 57.9667 455.372 60.55 456.572 62.55C457.739 64.4833 460.105 65.4333 463.672 65.4C468.105 65.3333 471.572 63.9833 474.072 61.35C473.939 58.45 472.539 54.7667 469.872 50.3C469.472 49.6333 469.372 49.1167 469.572 48.75L471.422 44.55C471.889 43.4833 472.472 43.6667 473.172 45.1ZM462.722 37.3C462.922 37.0333 463.205 36.95 463.572 37.05C464.239 37.2833 464.872 37.5833 465.472 37.95C466.105 38.3167 466.689 38.7333 467.222 39.2C467.489 39.4667 467.539 39.7667 467.372 40.1L464.972 43.9C464.739 44.2333 464.439 44.2667 464.072 44C463.739 43.7333 462.539 42.9833 460.472 41.75C460.105 41.5167 460.039 41.2333 460.272 40.9L462.722 37.3ZM486.249 10.6C486.583 10.4333 486.833 10.35 486.999 10.35C487.299 10.35 487.483 10.5333 487.549 10.9V11L487.499 12.75C487.499 13.25 487.283 13.6333 486.849 13.9C485.616 14.5333 484.416 15.1333 483.249 15.7C482.083 16.2333 480.949 16.75 479.849 17.25C479.149 17.55 478.666 17.65 478.399 17.55C478.166 17.4167 478.049 17.2 478.049 16.9V15.85C478.049 15.55 478.233 15.2667 478.599 15C480.566 13.8333 482.199 12.8833 483.499 12.15C484.766 11.4167 485.683 10.9 486.249 10.6ZM484.535 33.4C485.202 31.9667 485.635 32.3 485.835 34.4L487.035 46.6C488.035 57.5333 487.802 64.4167 486.335 67.25C486.002 67.85 485.685 68.1 485.385 68C485.052 67.9 484.902 67.1 484.935 65.6C484.969 64.3333 484.835 62.25 484.535 59.35C484.235 56.4167 483.785 52.7 483.185 48.2L482.135 39.9C482.035 39.2 482.135 38.5167 482.435 37.85L484.535 33.4ZM488.635 27.75C486.869 28.0833 485.602 28.3833 484.835 28.65C484.069 28.9167 482.685 29.4833 480.685 30.35C480.085 30.6167 479.619 30.5 479.285 30C478.819 29.2333 479.319 28.35 480.785 27.35C479.819 26.75 479.252 26.0667 479.085 25.3C478.819 23.8333 479.419 22.1 480.885 20.1C482.352 18.0667 483.935 17.1333 485.635 17.3C486.869 17.4 487.435 18.05 487.335 19.25C487.302 19.85 487.202 20.3667 487.035 20.8C486.902 21.2 486.752 21.5333 486.585 21.8C486.185 22.3667 485.935 22.6833 485.835 22.75C485.369 23.0833 484.952 23 484.585 22.5C484.219 21.9667 483.785 21.6833 483.285 21.65C482.752 21.6167 482.352 21.75 482.085 22.05C481.852 22.35 481.852 22.6167 482.085 22.85C483.119 23.8167 484.669 24.3333 486.735 24.4C487.102 24.4 487.602 24.3333 488.235 24.2C488.602 24.1333 488.902 24.0833 489.135 24.05C489.369 23.9833 489.569 23.95 489.735 23.95C490.069 23.95 490.352 24.1167 490.585 24.45C490.752 24.75 490.785 25.05 490.685 25.35C489.985 26.7833 489.302 27.5833 488.635 27.75ZM528.03 10.3C528.764 10.2 529.364 10.5333 529.83 11.3C530.697 12.6667 530.73 14.4167 529.93 16.55C530.13 16.65 530.297 16.7333 530.43 16.8C530.564 16.8667 530.68 16.9333 530.78 17C531.447 17.3 531.614 17.8 531.28 18.5L530.68 19.6C530.414 20.1 530.08 20.2833 529.68 20.15C529.214 19.9833 528.78 19.7833 528.38 19.55C527.247 21.0167 526.03 22.3167 524.73 23.45C523.464 24.55 522.097 25.4667 520.63 26.2C519.73 26.6 519.114 26.4833 518.78 25.85C518.414 25.1833 518.714 24.6 519.68 24.1C522.514 22.4333 524.764 20.5667 526.43 18.5C524.13 17.2 523.28 15.8167 523.88 14.35C524.914 11.95 526.297 10.6 528.03 10.3ZM527.73 15.5C527.73 14.9 527.63 14.5 527.43 14.3C527.33 14.2 527.214 14.1167 527.08 14.05C526.98 13.9833 526.88 13.9167 526.78 13.85C526.547 13.7167 526.314 13.85 526.08 14.25C526.247 14.6167 526.797 15.0333 527.73 15.5ZM544.704 60.85C546.07 61.75 546.237 63.2833 545.204 65.45C544.604 66.5833 543.787 66.9 542.754 66.4C537.387 69.8667 530.387 71.6 521.754 71.6C513.854 71.6 509.354 69.3167 508.254 64.75C507.787 62.8833 507.837 61.0667 508.404 59.3C508.97 57.5333 509.704 56.1667 510.604 55.2C511.004 54.7333 511.437 54.6833 511.904 55.05C512.37 55.4167 512.304 55.9667 511.704 56.7C510.804 57.8667 510.404 59.05 510.504 60.25C510.77 63.65 515.387 65.35 524.354 65.35C528.454 65.35 532.637 64.8167 536.904 63.75C539.304 63.15 540.737 62.6333 541.204 62.2C541.737 61.7333 542.22 60.8333 542.654 59.5C542.954 58.6667 543.47 58.3667 544.204 58.6C544.97 58.8667 545.137 59.6167 544.704 60.85ZM527.804 42.55C528.004 42.2833 528.287 42.2 528.654 42.3C529.32 42.5333 529.97 42.8333 530.604 43.2C531.237 43.5667 531.82 43.9833 532.354 44.45C532.62 44.7167 532.67 45.0167 532.504 45.35L530.104 49.15C529.837 49.5167 529.537 49.55 529.204 49.25C529.07 49.1167 528.77 48.9167 528.304 48.65C527.87 48.35 527.287 47.9833 526.554 47.55L524.904 50.25C524.67 50.5833 524.37 50.6167 524.004 50.35C523.837 50.2167 523.437 49.9667 522.804 49.6C522.204 49.2333 521.387 48.7333 520.354 48.1C519.987 47.9 519.937 47.6167 520.204 47.25L522.604 43.65C522.804 43.3833 523.087 43.3 523.454 43.4C524.454 43.7333 525.387 44.2167 526.254 44.85L527.804 42.55ZM546.498 18.65C546.598 18.4833 546.698 18.3167 546.798 18.15C546.898 17.9833 546.998 17.8333 547.098 17.7C548.332 16.0333 549.882 15.8 551.748 17C551.948 17.1333 552.082 17.2333 552.148 17.3C553.582 18.4 554.348 19.7333 554.448 21.3C554.548 23.2 553.948 24.6167 552.648 25.55C551.715 26.1833 550.582 26.45 549.248 26.35C549.148 26.35 549.032 26.35 548.898 26.35C548.798 26.3167 548.698 26.3 548.598 26.3C546.365 25.9333 545.365 24.4333 545.598 21.8C545.598 21.6667 545.598 21.5333 545.598 21.4C545.632 21.2667 545.665 21.1333 545.698 21C545.832 20.1 546.098 19.3167 546.498 18.65ZM552.098 22.55C553.065 22.2833 553.048 21.65 552.048 20.65C551.315 19.9167 550.432 19.55 549.398 19.55C548.165 19.5167 547.515 20.05 547.448 21.15C547.448 21.8833 547.715 22.35 548.248 22.55C549.415 22.95 550.698 22.95 552.098 22.55ZM542.327 66C541.093 65.1333 540.81 63.8667 541.477 62.2C542.477 60.4 543.46 59.8667 544.427 60.6C546.393 62.1 548.443 62.95 550.577 63.15C550.577 62.9167 550.377 62.55 549.977 62.05C549.577 61.5833 549.46 61.1167 549.627 60.65L550.777 57.2C551.377 55.4333 552.043 55.4 552.777 57.1C553.477 58.9333 553.727 60.9667 553.527 63.2C553.227 66.4 552.11 68.1667 550.177 68.5C547.743 68.8667 545.127 68.0333 542.327 66ZM551.277 73.7C551.477 73.4333 551.76 73.35 552.127 73.45C552.793 73.6833 553.443 73.9833 554.077 74.35C554.71 74.7167 555.293 75.1333 555.827 75.6C556.093 75.8667 556.143 76.1667 555.977 76.5L553.577 80.3C553.31 80.6667 553.01 80.7 552.677 80.4C552.543 80.2667 552.243 80.05 551.777 79.75C551.343 79.4833 550.76 79.1333 550.027 78.7L548.377 81.4C548.143 81.7333 547.843 81.7667 547.477 81.5C547.31 81.3667 546.91 81.1167 546.277 80.75C545.677 80.3833 544.86 79.8833 543.827 79.25C543.46 79.05 543.41 78.7667 543.677 78.4L546.077 74.8C546.277 74.5333 546.56 74.45 546.927 74.55C547.927 74.8833 548.86 75.3667 549.727 76L551.277 73.7ZM574.073 16.6C574.473 16.3333 574.873 16.25 575.273 16.35C575.607 16.45 575.673 16.85 575.473 17.55L575.023 19.15C574.857 19.65 574.44 20.1167 573.773 20.55L564.023 26.2C563.79 26.3333 563.573 26.4 563.373 26.4C562.94 26.3667 562.69 26.0333 562.623 25.4V24.55C562.69 24.0167 563.04 23.5333 563.673 23.1L574.073 16.6ZM579.323 68.75C578.123 75.0833 574.99 79.3833 569.923 81.65C568.423 82.3167 567.073 82.65 565.873 82.65C564.14 82.65 561.89 81.4833 559.123 79.15C558.623 78.75 558.457 78.3833 558.623 78.05C558.79 77.7167 559.207 77.6833 559.873 77.95C562.84 78.9833 566.19 78.3667 569.923 76.1C573.657 73.8333 576.073 71.3 577.173 68.5C574.673 68.4 572.89 68.0167 571.823 67.35C570.523 66.55 570.09 65.1 570.523 63C571.29 59.7 572.423 57.5833 573.923 56.65C575.557 55.6833 576.923 55.9 578.023 57.3C578.823 58.3333 579.373 60.1333 579.673 62.7C580.873 62.6333 581.557 63.2333 581.723 64.5C581.823 65.3667 581.757 66.2667 581.523 67.2C581.29 68.1667 580.84 68.6833 580.173 68.75H579.323ZM576.673 62.95C576.007 61.55 575.207 60.8667 574.273 60.9C573.74 61 573.34 61.2 573.073 61.5C572.807 61.8333 572.79 62.1333 573.023 62.4C573.557 63.1 574.707 63.4167 576.473 63.35C576.673 63.35 576.74 63.2167 576.673 62.95ZM586.964 16.6C587.364 16.3333 587.764 16.25 588.164 16.35C588.497 16.45 588.564 16.85 588.364 17.55L587.914 19.15C587.747 19.65 587.331 20.1167 586.664 20.55L576.914 26.2C576.681 26.3333 576.464 26.4 576.264 26.4C575.831 26.3667 575.581 26.0333 575.514 25.4V24.55C575.581 24.0167 575.931 23.5333 576.564 23.1L586.964 16.6ZM582.61 57.35L584.06 54.25C584.56 53.15 584.993 52.9333 585.36 53.6C586.993 56.3667 587.376 59.6 586.51 63.3C585.676 66.9333 583.526 68.75 580.06 68.75C579.393 68.75 578.91 68.1833 578.61 67.05C578.476 66.4833 578.376 65.9833 578.31 65.55C578.243 65.0833 578.21 64.6833 578.21 64.35C578.21 63.6833 578.56 63.2 579.26 62.9C579.526 62.8 579.793 62.75 580.06 62.75C581.926 62.7833 583.326 62.4 584.26 61.6C584.06 60.7 583.676 59.95 583.11 59.35C582.476 58.65 582.31 57.9833 582.61 57.35ZM583.21 42.9C583.41 42.6333 583.693 42.55 584.06 42.65C584.726 42.8833 585.36 43.1833 585.96 43.55C586.593 43.9167 587.176 44.3333 587.71 44.8C587.976 45.0667 588.026 45.3667 587.86 45.7L585.46 49.5C585.226 49.8333 584.926 49.8667 584.56 49.6C584.226 49.3333 583.026 48.5833 580.96 47.35C580.593 47.1167 580.526 46.8333 580.76 46.5L583.21 42.9ZM213.828 148.8C214.962 148.667 216.078 148.617 217.178 148.65C218.312 148.65 219.412 148.717 220.478 148.85C222.645 149.083 224.245 149.683 225.278 150.65C225.912 151.283 226.162 152.25 226.028 153.55C225.895 154.683 225.712 155.633 225.478 156.4C225.245 157.2 224.945 157.833 224.578 158.3C224.245 158.733 223.845 159.167 223.378 159.6C222.912 160.067 222.378 160.533 221.778 161C218.678 163.367 215.645 165.083 212.678 166.15C209.745 167.217 206.895 167.65 204.128 167.45C195.662 166.85 192.678 161.7 195.178 152C195.878 149.333 197.012 146.983 198.578 144.95C199.045 144.383 199.462 144.267 199.828 144.6C200.228 144.967 200.178 145.5 199.678 146.2C198.712 147.667 198.012 149.05 197.578 150.35C197.145 151.65 196.945 152.867 196.978 154C197.212 158.767 200.178 161.167 205.878 161.2C211.578 161.267 217.162 159.017 222.628 154.45C221.228 153.683 218.145 153.3 213.378 153.3C212.912 153.3 212.628 153.117 212.528 152.75C212.428 152.383 212.428 152.083 212.528 151.85L213.828 148.8ZM219.483 104.6C219.883 104.333 220.283 104.25 220.683 104.35C221.017 104.45 221.083 104.85 220.883 105.55L220.433 107.15C220.267 107.65 219.85 108.117 219.183 108.55L209.433 114.2C209.2 114.333 208.983 114.4 208.783 114.4C208.35 114.367 208.1 114.033 208.033 113.4V112.55C208.1 112.017 208.45 111.533 209.083 111.1L219.483 104.6ZM217.708 127.35C218.641 132.583 219.341 136.7 219.808 139.7C220.274 142.667 220.474 144.5 220.408 145.2C220.374 145.9 220.308 146.5 220.208 147C220.141 147.5 220.074 147.933 220.008 148.3C219.508 150.4 218.491 151.75 216.958 152.35C215.791 152.783 214.508 153.067 213.108 153.2L212.408 153.25L212.308 152.55C212.208 151.883 212.291 151.217 212.558 150.55C212.791 149.95 213.124 149.517 213.558 149.25C213.758 149.117 214.024 148.983 214.358 148.85C214.658 148.683 215.024 148.517 215.458 148.35C215.924 148.183 216.291 148.033 216.558 147.9C216.858 147.767 217.074 147.667 217.208 147.6C216.974 145.833 216.691 143.967 216.358 142C216.058 140 215.691 137.9 215.258 135.7C214.824 133.5 214.491 131.683 214.258 130.25C213.991 128.783 213.808 127.717 213.708 127.05L213.108 124.3C213.074 124.033 213.058 123.783 213.058 123.55C213.024 123.317 213.041 123.117 213.108 122.95C213.341 122.35 213.524 121.85 213.658 121.45C213.758 121.017 213.841 120.683 213.908 120.45C214.074 119.983 214.441 119.75 215.008 119.75C215.641 119.75 216.074 120.05 216.308 120.65C216.574 121.317 216.891 121.933 217.258 122.5C217.624 123.067 218.024 123.55 218.458 123.95C219.124 124.55 219.158 125.25 218.558 126.05L217.708 127.35ZM231.617 119.75C232.284 118.583 232.7 118.7 232.867 120.1C233.567 126.3 233.967 131.967 234.067 137.1C234.167 142.3 234.267 145.45 234.367 146.55C234.5 149.15 236.084 150.55 239.117 150.75C240.15 150.817 240.734 151.317 240.867 152.25C240.9 152.417 240.9 152.667 240.867 153C240.867 153.3 240.834 153.667 240.767 154.1C240.634 154.9 240.45 155.55 240.217 156.05C240.017 156.517 239.65 156.75 239.117 156.75C234.417 156.75 231.917 154.483 231.617 149.95C231.55 148.917 231.484 147.517 231.417 145.75C231.35 143.983 231.284 141.867 231.217 139.4C231.15 137.133 230.967 134.8 230.667 132.4C230.4 130 230.017 127.517 229.517 124.95C229.35 124.083 229.434 123.4 229.767 122.9L231.617 119.75ZM251.612 104.6C252.012 104.333 252.412 104.25 252.812 104.35C253.146 104.45 253.212 104.85 253.012 105.55L252.562 107.15C252.396 107.65 251.979 108.117 251.312 108.55L241.562 114.2C241.329 114.333 241.112 114.4 240.912 114.4C240.479 114.367 240.229 114.033 240.162 113.4V112.55C240.229 112.017 240.579 111.533 241.212 111.1L251.612 104.6ZM257.393 150.75C258.659 150.75 259.393 151.267 259.593 152.3C259.626 152.467 259.643 152.65 259.643 152.85C259.676 153.017 259.676 153.183 259.643 153.35C259.276 155.617 258.543 156.75 257.443 156.75C254.043 156.75 250.926 155.05 248.093 151.65C244.259 155.05 241.259 156.75 239.093 156.75C237.893 156.75 237.143 155.917 236.843 154.25C236.543 152.583 236.926 151.5 237.993 151C238.393 150.833 238.759 150.75 239.093 150.75C241.193 150.717 242.993 150.25 244.493 149.35C243.859 148.85 242.476 148.45 240.343 148.15C239.643 148.05 239.359 147.583 239.493 146.75C239.759 145.383 240.709 144.05 242.343 142.75C245.476 140.35 248.976 140.25 252.843 142.45C254.776 143.583 255.593 144.817 255.293 146.15C254.993 147.383 253.843 148.583 251.843 149.75C252.376 150.083 253.109 150.333 254.043 150.5C254.976 150.633 256.093 150.717 257.393 150.75ZM264.308 104.6C264.708 104.333 265.108 104.25 265.508 104.35C265.841 104.45 265.908 104.85 265.708 105.55L265.258 107.15C265.091 107.65 264.674 108.117 264.008 108.55L254.258 114.2C254.024 114.333 253.808 114.4 253.608 114.4C253.174 114.367 252.924 114.033 252.858 113.4V112.55C252.924 112.017 253.274 111.533 253.908 111.1L264.308 104.6ZM259.953 145.35L261.403 142.25C261.903 141.15 262.337 140.933 262.703 141.6C264.337 144.367 264.72 147.6 263.853 151.3C263.02 154.933 260.87 156.75 257.403 156.75C256.737 156.75 256.253 156.183 255.953 155.05C255.82 154.483 255.72 153.983 255.653 153.55C255.587 153.083 255.553 152.683 255.553 152.35C255.553 151.683 255.903 151.2 256.603 150.9C256.87 150.8 257.137 150.75 257.403 150.75C259.27 150.783 260.67 150.4 261.603 149.6C261.403 148.7 261.02 147.95 260.453 147.35C259.82 146.65 259.653 145.983 259.953 145.35ZM262.903 132.25C263.103 131.983 263.387 131.9 263.753 132C264.42 132.233 265.07 132.533 265.703 132.9C266.337 133.267 266.92 133.683 267.453 134.15C267.72 134.417 267.77 134.717 267.603 135.05L265.203 138.85C264.937 139.217 264.637 139.25 264.303 138.95C264.17 138.817 263.87 138.617 263.403 138.35C262.97 138.05 262.387 137.683 261.653 137.25L260.003 139.95C259.77 140.283 259.47 140.317 259.103 140.05C258.937 139.917 258.537 139.667 257.903 139.3C257.303 138.933 256.487 138.433 255.453 137.8C255.087 137.6 255.037 137.317 255.303 136.95L257.703 133.35C257.903 133.083 258.187 133 258.553 133.1C259.553 133.433 260.487 133.917 261.353 134.55L262.903 132.25ZM295.704 171.5C296.104 171.233 296.504 171.15 296.904 171.25C297.237 171.35 297.304 171.75 297.104 172.45L296.654 174.05C296.487 174.55 296.071 175.017 295.404 175.45L285.654 181.1C285.421 181.233 285.204 181.3 285.004 181.3C284.571 181.267 284.321 180.933 284.254 180.3V179.45C284.321 178.917 284.671 178.433 285.304 178L295.704 171.5ZM297.674 149.65C298.841 152.65 300.308 154.25 302.074 154.45C303.008 154.55 303.574 155.183 303.774 156.35C303.874 156.917 303.924 157.483 303.924 158.05C303.924 158.65 303.841 159.233 303.674 159.8C303.374 160.933 302.874 161.5 302.174 161.5C298.341 161.5 295.808 158.533 294.574 152.6C294.274 153.233 293.991 153.783 293.724 154.25C293.458 154.717 293.224 155.117 293.024 155.45C292.558 156.25 291.891 156.667 291.024 156.7C287.858 157 285.791 156.75 284.824 155.95C283.824 155.117 283.558 154.1 284.024 152.9C284.558 151.433 285.008 150.25 285.374 149.35C285.741 148.45 286.008 147.833 286.174 147.5C286.974 146.6 287.874 145.767 288.874 145C289.908 144.2 291.041 143.483 292.274 142.85L292.024 141.4C291.891 140.533 291.924 139.917 292.124 139.55L293.424 137.25C294.091 136.017 294.624 136.45 295.024 138.55C295.624 141.45 296.141 143.833 296.574 145.7C297.041 147.533 297.408 148.85 297.674 149.65ZM293.224 146.35C292.758 146.483 292.258 146.65 291.724 146.85C291.191 147.05 290.641 147.333 290.074 147.7C289.508 148.033 289.008 148.417 288.574 148.85C288.141 149.283 287.791 149.767 287.524 150.3C288.924 151.2 290.808 151.25 293.174 150.45C293.574 150.283 293.774 149.8 293.774 149L293.224 146.35ZM305.839 155.65C305.439 159.183 304.239 161.133 302.239 161.5C300.906 161.7 300.089 161.233 299.789 160.1C299.689 159.733 299.673 159.283 299.739 158.75C299.773 158.25 299.856 157.667 299.989 157C300.389 155.2 301.089 154.35 302.089 154.45C302.323 154.483 302.506 154.5 302.639 154.5C302.773 154.467 302.889 154.433 302.989 154.4C303.423 153.767 303.489 152.317 303.189 150.05C303.056 148.883 302.773 146.517 302.339 142.95C301.939 139.383 301.406 134.6 300.739 128.6C300.573 126.9 300.656 125.75 300.989 125.15L302.239 123C302.539 122.5 302.856 122.233 303.189 122.2C303.856 122.1 304.239 122.517 304.339 123.45C305.839 137.283 306.839 145.133 307.339 147C307.839 148.833 308.906 149.983 310.539 150.45C312.706 151.05 313.339 152.783 312.439 155.65C312.039 156.75 311.406 157.4 310.539 157.6C308.906 157.9 307.339 157.25 305.839 155.65ZM319.288 171.5C319.688 171.233 320.088 171.15 320.488 171.25C320.821 171.35 320.888 171.75 320.688 172.45L320.238 174.05C320.071 174.55 319.655 175.017 318.988 175.45L309.238 181.1C309.005 181.233 308.788 181.3 308.588 181.3C308.155 181.267 307.905 180.933 307.838 180.3V179.45C307.905 178.917 308.255 178.433 308.888 178L319.288 171.5ZM310.383 125.25L311.333 123.15C311.6 122.517 311.983 122.233 312.483 122.3C312.983 122.333 313.333 122.65 313.533 123.25C313.8 124.017 314.083 124.683 314.383 125.25C314.716 125.783 315.05 126.233 315.383 126.6C316.05 127.3 315.75 128.367 314.483 129.8C314.383 129.933 314.333 130.067 314.333 130.2C314.4 131.033 314.466 132 314.533 133.1C314.633 134.2 314.75 135.45 314.883 136.85L315.333 141.5C315.533 143.667 315.65 145.55 315.683 147.15C315.75 148.75 315.7 150.05 315.533 151.05C314.966 154.717 313.5 156.85 311.133 157.45C311 157.483 310.866 157.5 310.733 157.5C310.6 157.533 310.466 157.567 310.333 157.6C309.566 157.7 309.033 157.167 308.733 156C308.7 155.833 308.666 155.633 308.633 155.4C308.6 155.167 308.55 154.917 308.483 154.65C308.183 152.583 308.416 151.267 309.183 150.7C309.45 150.467 309.783 150.383 310.183 150.45C310.65 150.517 311.083 150.567 311.483 150.6C311.883 150.6 312.2 150.55 312.433 150.45C312.5 149.517 312.45 148.117 312.283 146.25C312.15 144.35 311.933 141.983 311.633 139.15C311.3 136.083 311.033 133.583 310.833 131.65C310.633 129.717 310.5 128.35 310.433 127.55L310.333 125.55C310.333 125.417 310.35 125.317 310.383 125.25ZM321.949 119.75C322.616 118.583 323.032 118.7 323.199 120.1C323.899 126.3 324.299 131.967 324.399 137.1C324.499 142.3 324.599 145.45 324.699 146.55C324.832 149.15 326.416 150.55 329.449 150.75C330.482 150.817 331.066 151.317 331.199 152.25C331.232 152.417 331.232 152.667 331.199 153C331.199 153.3 331.166 153.667 331.099 154.1C330.966 154.9 330.782 155.55 330.549 156.05C330.349 156.517 329.982 156.75 329.449 156.75C324.749 156.75 322.249 154.483 321.949 149.95C321.882 148.917 321.816 147.517 321.749 145.75C321.682 143.983 321.616 141.867 321.549 139.4C321.482 137.133 321.299 134.8 320.999 132.4C320.732 130 320.349 127.517 319.849 124.95C319.682 124.083 319.766 123.4 320.099 122.9L321.949 119.75ZM348.565 105.1C349.165 104.7 349.648 104.55 350.015 104.65C350.415 104.75 350.482 105.183 350.215 105.95L349.665 107.5C349.465 108.067 349.148 108.5 348.715 108.8L339.965 114.2C339.632 114.4 339.282 114.467 338.915 114.4C338.548 114.333 338.415 113.983 338.515 113.35L338.665 112.4C338.765 111.833 339.098 111.367 339.665 111L348.565 105.1ZM348.365 100.1C348.898 99.7667 349.332 99.65 349.665 99.75C349.998 99.85 350.098 100.233 349.965 100.9L349.615 102.2C349.415 102.833 349.015 103.333 348.415 103.7L339.565 108.85C338.865 109.217 338.365 109.333 338.065 109.2C337.698 109.033 337.665 108.6 337.965 107.9L338.415 106.95C338.648 106.417 338.948 106.033 339.315 105.8L348.365 100.1ZM333.225 152.25C332.191 155.283 330.925 156.783 329.425 156.75C328.925 156.75 328.525 156.417 328.225 155.75C327.625 154.317 327.491 153.167 327.825 152.3C328.158 151.433 328.641 150.933 329.275 150.8C331.041 150.467 332.491 149.3 333.625 147.3C334.025 146.6 334.508 146.25 335.075 146.25C335.675 146.25 336.208 146.633 336.675 147.4C337.475 148.733 339.175 149.833 341.775 150.7C342.608 149.767 343.358 148.967 344.025 148.3C344.691 147.6 345.275 147.033 345.775 146.6C350.108 142.867 353.375 141 355.575 141C356.841 141 358.241 141.617 359.775 142.85C360.975 143.85 361.458 145.067 361.225 146.5C360.991 147.933 360.408 149.467 359.475 151.1C358.575 152.7 357.908 153.667 357.475 154C354.241 156.333 350.325 157.5 345.725 157.5C343.958 157.5 342.058 157.267 340.025 156.8C339.591 157.7 339.258 158.733 339.025 159.9C338.825 160.667 338.408 160.95 337.775 160.75C337.108 160.55 336.858 160.033 337.025 159.2C337.091 158.8 337.208 158.333 337.375 157.8C337.575 157.267 337.791 156.667 338.025 156C336.391 155.467 334.791 154.217 333.225 152.25ZM357.925 149.6C355.991 148.167 353.825 147.517 351.425 147.65C349.625 147.75 347.208 148.967 344.175 151.3C345.041 151.333 346.091 151.317 347.325 151.25C348.591 151.183 350.041 151.083 351.675 150.95C355.008 150.65 357.091 150.2 357.925 149.6ZM343.825 131.05C344.025 130.783 344.308 130.7 344.675 130.8C345.341 131.033 345.975 131.333 346.575 131.7C347.208 132.067 347.791 132.483 348.325 132.95C348.591 133.217 348.641 133.517 348.475 133.85L346.075 137.65C345.841 137.983 345.541 138.017 345.175 137.75C344.841 137.483 343.641 136.733 341.575 135.5C341.208 135.267 341.141 134.983 341.375 134.65L343.825 131.05ZM365.688 106.65C365.788 106.483 365.888 106.317 365.988 106.15C366.088 105.983 366.188 105.833 366.288 105.7C367.521 104.033 369.071 103.8 370.938 105C371.138 105.133 371.271 105.233 371.338 105.3C372.771 106.4 373.538 107.733 373.638 109.3C373.738 111.2 373.138 112.617 371.838 113.55C370.904 114.183 369.771 114.45 368.438 114.35C368.338 114.35 368.221 114.35 368.088 114.35C367.988 114.317 367.888 114.3 367.788 114.3C365.554 113.933 364.554 112.433 364.788 109.8C364.788 109.667 364.788 109.533 364.788 109.4C364.821 109.267 364.854 109.133 364.888 109C365.021 108.1 365.288 107.317 365.688 106.65ZM371.288 110.55C372.254 110.283 372.238 109.65 371.238 108.65C370.504 107.917 369.621 107.55 368.588 107.55C367.354 107.517 366.704 108.05 366.638 109.15C366.638 109.883 366.904 110.35 367.438 110.55C368.604 110.95 369.888 110.95 371.288 110.55ZM375.137 152.6L376.987 148.25C377.454 147.117 377.97 147.083 378.537 148.15C378.804 148.683 379.02 149.117 379.187 149.45C379.387 149.783 379.537 150.033 379.637 150.2C379.837 150.5 380.47 150.683 381.537 150.75C382.737 150.817 383.37 151.8 383.437 153.7C383.437 155.667 382.82 156.683 381.587 156.75H379.887C379.754 158.617 379.387 160.35 378.787 161.95C378.22 163.55 377.437 165 376.437 166.3C374.437 168.9 372.42 170.35 370.387 170.65C368.32 170.95 366.287 170.667 364.287 169.8C363.254 169.333 362.437 168.95 361.837 168.65C361.237 168.35 360.804 168.133 360.537 168C360.037 167.7 359.887 167.383 360.087 167.05C360.254 166.683 360.604 166.583 361.137 166.75C363.07 167.25 364.837 167.3 366.437 166.9C369.27 166.2 371.804 164.683 374.037 162.35C376.237 160.05 377.42 158.367 377.587 157.3C377.654 156.867 376.97 155.933 375.537 154.5C374.97 153.933 374.837 153.3 375.137 152.6ZM389.308 104.6C389.708 104.333 390.108 104.25 390.508 104.35C390.841 104.45 390.908 104.85 390.708 105.55L390.258 107.15C390.091 107.65 389.674 108.117 389.008 108.55L379.258 114.2C379.024 114.333 378.808 114.4 378.608 114.4C378.174 114.367 377.924 114.033 377.858 113.4V112.55C377.924 112.017 378.274 111.533 378.908 111.1L389.308 104.6ZM386.576 133.85C387.576 133.85 388.409 134.183 389.076 134.85C391.742 137.583 393.076 141.233 393.076 145.8C393.076 148.467 392.592 150.433 391.626 151.7C388.926 155.167 385.542 156.85 381.476 156.75C380.676 156.75 380.142 156.233 379.876 155.2C379.642 154.2 379.642 153.233 379.876 152.3C380.109 151.3 380.626 150.783 381.426 150.75C385.692 150.45 388.759 149.417 390.626 147.65C390.526 146.517 390.392 145.867 390.226 145.7C390.026 145.467 389.809 145.55 389.576 145.95C388.942 147.017 388.109 147.683 387.076 147.95C383.809 148.75 382.076 147.9 381.876 145.4C381.609 142.467 382.026 139.817 383.126 137.45C384.226 135.05 385.376 133.85 386.576 133.85ZM385.326 140C384.559 140 384.126 140.733 384.026 142.2C384.292 142.267 384.576 142.317 384.876 142.35C385.209 142.383 385.576 142.383 385.976 142.35C386.742 142.25 387.226 142.05 387.426 141.75C386.659 140.583 385.959 140 385.326 140ZM384.276 124.8C384.476 124.533 384.759 124.45 385.126 124.55C385.792 124.783 386.426 125.083 387.026 125.45C387.659 125.817 388.242 126.233 388.776 126.7C389.042 126.967 389.092 127.267 388.926 127.6L386.526 131.4C386.292 131.733 385.992 131.767 385.626 131.5C385.292 131.233 384.092 130.483 382.026 129.25C381.659 129.017 381.592 128.733 381.826 128.4L384.276 124.8Z" fill="black"/>
</svg>
